<?xml version="1.0" encoding="utf-8"?>
<!-- Generator: Adobe Illustrator 16.0.3, SVG Export Plug-In . SVG Version: 6.00 Build 0)  -->
<!DOCTYPE svg PUBLIC "-//W3C//DTD SVG 1.1//EN" "http://www.w3.org/Graphics/SVG/1.1/DTD/svg11.dtd">
<svg version="1.1" xmlns="http://www.w3.org/2000/svg" xmlns:xlink="http://www.w3.org/1999/xlink" x="0px" y="0px"
	 width="1307.738px" height="1297.323px" viewBox="0 0 1307.738 1297.323" enable-background="new 0 0 1307.738 1297.323"
	 xml:space="preserve">
<g id="Detalles">
</g>
<g id="paleta_de_colores">
</g>
<g id="_x31_">
	<g id="Capa_5">
	</g>
	<g id="Capa_4">
	</g>
	<g id="Capa_3">
	</g>
</g>
<g id="_x32_">
	<g>
		<polyline fill="#E3E3E5" points="588.418,588.619 497.258,536.036 344.196,480.982 291.651,465.92 199.987,485.882 
			141.898,525.141 95.12,584.629 95.12,662.488 117.857,714.419 161.81,764.47 189.862,799.954 199.337,851.974 187.968,925.873 
			195.547,992.192 222.075,1037.669 259.972,1073.701 290.29,1085.625 326.292,1097.113 360.036,1097.639 374.817,1134.307 
			400.19,1166.727 434.935,1205.682 470.626,1218.316 518.309,1225.896 570.099,1213.262 620.63,1184.831 655.996,1177.889 
			686.313,1177.889 733.056,1195.578 777.777,1223.365 822.743,1223.365 876.392,1217.051 908.647,1206.947 950.335,1166.727 
			977.937,1132.419 991.925,1097.113 1001.606,1085.625 1024.863,1085.67 1072.864,1062.938 1109.503,1033.887 1142.974,992.2 
			1148.657,956.827 1148.657,912.609 1143.61,874.578 1139.82,829.243 1144.868,799.954 1166.349,769.866 1193.72,739.548 
			1225.089,702.917 1239.61,659.965 1239.61,609.433 1226.983,553.853 1206.851,521.011 1191.95,502.795 1157.503,475.534 
			1096.868,459.109 1037.143,454.062 987.862,465.409 917.485,485.631 864.43,502.795 792.426,550.063 754.528,569.012 
			728.001,581.646 680.6,569.736 635.686,573.415 603.421,589.744 592.667,589.958 		"/>
		<g>
			<path fill="#BDBCC9" d="M168.952,496.852l75.742-27.157l67.179,4.286l55.735,10.007l62.885,14.293l50.021,25.729l45.729,24.292
				l47.164,27.157l30.014,14.286l34.301-20.008c0,0,38.585,0,42.878,0c4.286,0,45.728,8.571,45.728,8.571l32.872-7.143
				l35.728-25.721l44.308-22.872l61.449-30.014l50.021-12.857l37.157-14.292l51.457-5.715l41.442-2.864l40.021,8.579l28.579,11.436
				l34.307,21.436l15.722,8.571l2.85-55.735l-2.85-42.871l-27.164-55.743l-30.008-32.871l-40.014-17.149l-55.742-10l-54.307-12.864
				l-41.45-37.157l-25.722-45.735l-35.729-47.164l-37.156-32.871l-60.028-4.286l-62.886,4.286l-42.871,22.871l-37.156-22.871
				l-40.021-11.429l-48.593-4.293l-50.021,17.15l-31.442,15.721l-37.157,52.879l-18.578,45.735l-24.293,18.578l-42.878,24.3
				l-60.021,10l-44.307,15.722l-44.307,18.578l-28.578,44.307l-14.293,47.164l-2.857,40.015L168.952,496.852z"/>
			<path fill="#BDBCC9" d="M755.283,694.879l3.738-12.31l2.043,0.644l2.324-7.653l1.628-27.512l-7.202-27.949l-7.356-37.29
				c48.155-28.282,132.432-53.152,135.777-53.678c99.946-15.596,137.807,55.269,137.807,55.269
				c45.779,100.146-42.457,128.82-51.279,159.745c-5.833,20.414,31.161,101.975-32.79,157.731
				c-2.917,2.547-40.073-64.78-88.437-120.619C809.554,732.769,755.283,694.879,755.283,694.879z"/>
			<path fill="#BDBCC9" d="M587.841,702.021l-3.73-12.31l-2.043,0.644l-2.324-7.653l-1.629-27.512l7.195-27.942l7.357-37.29
				c-48.156-28.289-132.426-53.151-135.778-53.677c-99.938-15.604-137.807,55.261-137.807,55.261
				c-45.772,100.153,42.457,128.821,51.28,159.745c5.832,20.414-31.162,101.975,32.789,157.732
				c2.924,2.546,40.073-64.781,88.437-120.62C533.571,739.918,587.841,702.021,587.841,702.021z"/>
			<path fill="#BDBCC9" d="M859.715,840.923c-1.473-3.057-49.747-76.468-90.798-114.343l-33.545,17.868l-24.647,15.011
				l-26.794,6.432h-12.864l0.015,2.14h-7.994l-26.795-6.425l-24.654-15.011l-33.553-17.868
				c-41.043,37.867-89.31,111.286-90.79,114.335c-43.944,91.108,12.864,147.925,12.864,147.925
				c82.537,72.885,135.593-3.22,167.754-2.68c23.034,0.385,100.338,69.939,178.938,0.533
				C846.851,988.84,903.659,932.031,859.715,840.923z"/>
			<path fill="#E6A341" d="M777.777,664.339c0,55.299-44.833,100.131-100.139,100.131c-55.299,0-100.131-44.832-100.131-100.131
				c0-55.306,44.832-100.139,100.131-100.139C732.944,564.2,777.777,609.033,777.777,664.339z"/>
			<g>
				<g>
					<path fill="#313131" d="M987.625,1097.639c-3.234,0-6.454-0.2-9.688-0.363c-18.979,67.216-76.12,116.179-143.484,116.179
						c-12.805,0-25.551-1.784-38.186-5.389c-11.398-2.931-26.387-11.11-42.271-19.771c-25.646-13.989-54.714-29.836-80.813-29.836
						c-26.128,0-54.032,15.773-78.666,29.695c-15.439,8.734-30.036,16.973-41.746,19.992c-12.338,3.523-25.084,5.308-37.889,5.308
						c-63.752,0-118.303-43.855-140.064-105.521c-6.706,0.674-13.412,1.148-20.133,1.148c-1.221,0-2.412-0.119-3.627-0.141
						c23.242,73.995,87.874,127.392,163.824,127.392c14.929,0,29.791-2.088,43.885-6.114c14.345-3.693,30.214-12.657,47.009-22.153
						c22.175-12.531,47.305-26.735,67.407-26.735c20.267,0,46.617,14.367,69.858,27.046c17.172,9.363,33.374,18.208,47.238,21.769
						c14.374,4.101,29.244,6.188,44.173,6.188c79.939,0,147.37-59.141,167.154-139.22c-4.611,0.332-9.273,0.525-13.967,0.525
						C987.632,1097.639,987.625,1097.639,987.625,1097.639z"/>
					<path fill="#313131" d="M374.817,1107.934c-2.546-7.209-4.633-14.654-6.247-22.309c-4.618,0.37-9.252,0.578-13.886,0.578
						c-3.168,0-6.291-0.178-9.43-0.349c1.48,7.891,3.449,15.589,5.803,23.087c1.215,0.021,2.406,0.141,3.627,0.141
						C361.405,1109.082,368.111,1108.607,374.817,1107.934z"/>
					<path fill="#313131" d="M1234.208,538.428c-7.684-12.976-16.877-24.907-27.357-35.633c-2.369,8.268-5.285,16.41-8.749,24.382
						c6.084,7.149,11.621,14.781,16.425,22.908c21.361,36.091,26.742,77.008,15.151,115.216c-3.708,12.25-9.119,23.93-16.225,34.974
						c-6.129,10.073-18.253,21.643-31.088,33.886c-20.48,19.525-43.67,41.656-51.265,66.66c-7.572,24.974-0.836,57.4,5.107,86.008
						c3.672,17.705,7.15,34.426,6.64,46.483c-0.2,12.82-2.198,25.536-5.922,37.801c-17.149,56.55-68.606,96.067-131.011,102.589
						c-0.984,7.972-2.421,15.788-4.309,23.412c74.529-5.204,136.733-51.835,157.214-119.361c4.345-14.301,6.654-29.126,6.892-43.767
						c0.621-14.597-3.131-32.679-7.106-51.813c-5.388-25.929-11.495-55.321-5.61-74.714c5.84-19.244,26.721-39.162,45.15-56.749
						c13.968-13.315,27.15-25.892,34.686-38.297c8.104-12.575,14.418-26.202,18.741-40.473
						C1265.043,627.522,1258.885,580.106,1234.208,538.428z"/>
					<path fill="#313131" d="M987.625,1074.767c-1.628,0-3.257-0.141-4.886-0.185c-1.117,7.757-2.724,15.336-4.803,22.693
						c3.234,0.163,6.454,0.363,9.688,0.363c0,0,0.007,0,0.015,0c4.693,0,9.355-0.193,13.967-0.525
						c1.888-7.624,3.324-15.44,4.309-23.412C999.897,1074.33,993.82,1074.767,987.625,1074.767z"/>
					<g>
						<path fill="#313131" d="M1018.697,448.229c-93.144,10.081-192.52,61.228-259.565,102.433
							c-4.308,2.643-8.645,5.359-12.997,8.127c-5.344,3.391-10.703,6.854-16.018,10.363c-2.931-1.703-5.929-3.265-9.008-4.708
							c-14.581-6.839-30.784-10.77-47.927-10.77c-12.375,0-24.256,2.058-35.41,5.744c-20.487-83.529-36.55-191.011-17.29-278.914
							l0.229-1.465c2.649-30.726,13.715-60.628,31.998-86.468c10.141-14.33,22.087-26.861,35.313-37.327
							c-4.574-4.404-9.407-8.453-14.359-12.294c5.722-4.664,11.644-9.009,17.794-12.961
							c-33.271-26.432-73.906-41.339-115.675-41.339c-34.411,0-67.127,10.288-94.632,29.74
							c-12.176,8.608-23.108,18.89-32.286,30.333c-9.578,11.295-17.351,27.771-25.588,45.231
							c-10.858,23.034-23.16,49.148-39.577,60.762c-16.543,11.709-46.351,15.195-72.656,18.274
							c-19.422,2.272-37.756,4.412-51.124,9.519c-14.101,4.938-27.431,11.821-39.637,20.459
							c-37.896,26.81-62.108,68.029-68.199,116.082c-3.213,25.351-1.096,50.983,5.877,75.579c-0.237,0.17-0.474,0.326-0.711,0.504
							c-19.785,14.914-36.521,33.404-49.155,54.735c-24.67,41.672-30.828,89.088-17.357,133.499
							c4.33,14.285,10.637,27.904,18.579,40.221c7.697,12.664,20.88,25.24,34.848,38.556c18.423,17.587,39.311,37.505,45.144,56.75
							c5.884,19.393-0.215,48.784-5.604,74.713c-3.975,19.142-7.728,37.216-7.121,51.509c0.252,14.944,2.568,29.771,6.906,44.07
							c21.421,70.628,88.503,118.324,167.568,119.754c-2.354-7.498-4.322-15.196-5.803-23.087
							c-66.356-3.538-121.914-44.1-139.879-103.307c-3.715-12.265-5.706-24.988-5.921-38.104
							c-0.503-11.755,2.968-28.475,6.646-46.18c5.944-28.608,12.672-61.035,5.101-86.009c-7.588-24.996-30.784-47.127-51.258-66.653
							c-12.835-12.25-24.959-23.818-31.235-34.145c-6.958-10.791-12.368-22.472-16.077-34.722
							c-11.591-38.207-6.217-79.125,15.151-115.216c9.948-16.81,22.835-31.605,37.949-43.966c6.011-4.9,12.361-9.423,19.045-13.523
							c12.938-7.935,27.054-14.33,42.079-18.89c17.009-5.159,34.507-7.779,51.975-7.779c13.59,0,27.105,1.592,40.178,4.723
							l1.465,0.252c93.041,9.858,194.09,62.626,267.707,109.908c-17.631,20-28.422,46.158-28.422,74.854
							c0,3.19,0.222,6.336,0.473,9.459c0.667,8.017,2.133,15.811,4.383,23.279c0.821,2.716,1.813,5.366,2.827,8.001
							c-8.741,7.276-17.395,14.7-25.685,22.043c-58.889,52.204-136.681,132.462-173.35,218.663
							c-17.401,29.962-26.587,64.514-26.587,99.982c0,12.775,1.185,25.255,3.435,37.327c3.139,0.171,6.262,0.349,9.43,0.349
							c4.634,0,9.268-0.208,13.886-0.578c-2.501-11.932-3.878-24.344-3.878-37.098c0-31.664,8.245-62.463,23.826-89.065l0.666-1.332
							c37.534-88.784,121.152-172.521,188.9-229.403c16.521,25.396,42.871,43.789,73.655,49.711
							c6.321,1.213,12.827,1.88,19.474,1.99c0.666,0.008,1.303,0.097,1.969,0.097c0.933,0,1.836-0.111,2.769-0.134
							c6.654-0.162,13.19-0.813,19.511-2.079c30.955-6.203,57.313-25.07,73.618-50.917
							c68.333,57.238,153.542,141.974,191.069,230.735l0.666,1.332c15.588,26.603,23.826,57.401,23.826,89.065
							c0,8.867-0.658,17.564-1.902,26.055c1.629,0.044,3.258,0.185,4.886,0.185c6.195,0,12.272-0.437,18.29-1.065
							c1.021-8.246,1.599-16.632,1.599-25.174c0-35.469-9.186-70.027-26.587-99.982c-36.639-86.12-114.564-166.422-173.572-218.671
							c-6.654-5.892-13.537-11.828-20.524-17.705c-2.413-2.035-4.841-4.063-7.276-6.069c1.991-5.396,3.672-10.918,4.818-16.661
							c1.451-7.225,2.235-14.692,2.235-22.339c0-33.026-14.285-62.715-36.89-83.462c73.958-47.986,177.228-102.686,272.118-112.736
							l1.466-0.252c29.873-7.165,61.908-6.114,92.145,3.057c24.552,7.438,46.668,19.719,65.143,35.795
							c2.924-7.823,5.285-15.795,7.031-23.87c-19.162-14.944-41.316-26.477-65.535-33.819
							C1088.229,441.546,1052.302,440.31,1018.697,448.229z M583.178,562.098c-67.046-41.197-166.422-92.358-259.565-102.433
							c-33.604-7.92-69.532-6.691-103.396,3.59c-14.885,4.508-28.963,10.629-42.079,18.127c-4.648-19.496-5.877-39.585-3.36-59.458
							c5.271-41.599,26.128-77.216,58.711-100.279c10.481-7.402,21.917-13.309,34.285-17.653
							c10.999-4.189,27.964-6.181,45.936-8.282c29.015-3.391,61.894-7.239,83.195-22.31c21.332-15.092,35.011-44.1,47.068-69.695
							c7.571-16.039,14.707-31.198,22.53-40.421c8.046-10.015,17.417-18.83,27.868-26.217
							c23.604-16.706,51.761-25.544,81.412-25.544c33.093,0,65.351,10.896,92.892,30.185c-12.849,10.873-24.581,23.427-34.64,37.646
							c-20.481,28.956-32.938,62.471-36.047,96.979c-19.852,91.552-2.702,202.001,15.211,278.632
							c1.081,4.619,2.213,9.297,3.39,13.989c-3.834,2.213-7.498,4.663-11.028,7.298
							C598.085,571.395,590.579,566.643,583.178,562.098z M763.736,667.1c0,8.156-1.185,16.018-3.212,23.537
							c-0.03,0.09-0.045,0.178-0.067,0.26c-2.116,7.75-5.218,15.07-9.2,21.85c-0.296,0.504-0.607,1-0.91,1.495
							c-13.775,22.457-37.002,38.431-64.151,42.36c-0.104-0.251-0.2-0.503-0.312-0.762c-0.104,0.288-0.222,0.577-0.34,0.865
							c-4.057,0.563-8.156,0.947-12.361,0.947c-4.012,0-7.949-0.354-11.82-0.865c-0.111-0.267-0.229-0.541-0.333-0.814
							c-0.097,0.244-0.192,0.481-0.289,0.726c-27.453-3.798-50.976-19.918-64.824-42.627c-2.428-3.975-4.611-8.104-6.417-12.45
							c-1.229-2.975-2.272-6.039-3.184-9.163c-1.34-4.566-2.309-9.289-2.908-14.122c-0.459-3.687-0.777-7.425-0.777-11.236
							c0-24.07,9.511-45.928,24.893-62.168c4.552-4.803,9.57-9.178,15.063-12.894c1.14-0.77,2.354-1.429,3.522-2.139
							c5.44-3.331,11.251-6.1,17.364-8.238c9.327-3.257,19.297-5.107,29.711-5.107c12.524,0,24.456,2.554,35.321,7.173
							c2.214,0.947,4.367,2.021,6.484,3.138c5.344,2.791,10.385,6.085,15.04,9.852c1.644,1.325,3.19,2.746,4.73,4.183
							C752.53,617.441,763.736,640.964,763.736,667.1z"/>
						<path fill="#313131" d="M1212.854,426.676c-6.092-48.045-30.296-89.266-68.192-116.082
							c-12.206-8.639-25.536-15.521-39.348-20.355c-13.664-5.203-31.991-7.35-51.413-9.622
							c-26.299-3.079-56.112-6.565-72.655-18.274c-16.418-11.614-28.727-37.728-39.585-60.762
							c-8.231-17.453-16.003-33.938-25.388-45.003c-9.371-11.673-20.311-21.953-32.479-30.562
							c-27.505-19.459-60.221-29.74-94.64-29.74c-35.262,0-69.694,10.688-99.598,29.896c6.173,4.915,12.095,10.236,17.72,15.921
							c24.974-14.781,53.13-22.945,81.878-22.945c29.652,0,57.809,8.83,81.42,25.544c10.451,7.379,19.822,16.202,28.067,26.446
							c7.616,9,14.759,24.152,22.324,40.199c12.064,25.588,25.743,54.588,47.067,69.68c21.303,15.078,54.188,18.927,83.203,22.324
							c17.972,2.095,34.937,4.078,46.217,8.379c12.088,4.241,23.523,10.147,34.004,17.549
							c32.582,23.064,53.441,58.674,58.711,100.279c2.368,18.727,1.443,37.653-2.547,56.084c6.795,5.307,13.234,11.035,19.23,17.164
							C1213.941,478.044,1216.095,452.211,1212.854,426.676z"/>
					</g>
					<path fill="#313131" d="M1180.589,509.501c6.277,5.463,12.124,11.369,17.513,17.676c3.464-7.972,6.38-16.114,8.749-24.382
						c-5.996-6.129-12.436-11.857-19.23-17.164C1185.874,493.706,1183.513,501.678,1180.589,509.501z"/>
					<path fill="#313131" d="M688.023,155.245c6.151-4.855,12.598-9.215,19.252-13.153c-5.625-5.685-11.547-11.006-17.72-15.921
						c-6.676,4.286-13.102,9.001-19.274,14.107C676.47,144.846,682.405,149.834,688.023,155.245z"/>
				</g>
			</g>
		</g>
	</g>
</g>
<g id="_x33_">
</g>
<g id="_x34_y_5">
</g>
</svg>
