<?xml version="1.0" encoding="utf-8"?>
<!-- Generator: Adobe Illustrator 16.0.3, SVG Export Plug-In . SVG Version: 6.00 Build 0)  -->
<!DOCTYPE svg PUBLIC "-//W3C//DTD SVG 1.1//EN" "http://www.w3.org/Graphics/SVG/1.1/DTD/svg11.dtd">
<svg version="1.1" id="Capa_1" xmlns="http://www.w3.org/2000/svg" xmlns:xlink="http://www.w3.org/1999/xlink" x="0px" y="0px"
	 width="1024px" height="768px" viewBox="0 0 1024 768" enable-background="new 0 0 1024 768" xml:space="preserve">
<g>
	<path d="M923.366,424.972c-1.741-1.211-2.931,0.538-3.975,1.665c-2.022,2.188-3.966,4.453-5.879,6.737
		c-19.272,23.01-40.515,43.811-66.741,58.924c-13.3,7.665-27.679,12.704-42.438,17.657c-0.342-3.704,1.676-5.525,2.97-7.555
		c36.722-57.618,68.212-117.976,94.579-180.994c5.039-12.043,10.343-24.038,13.289-36.842c0.796-3.46,0.885-7.316-2.903-9.054
		c-4.108-1.886-6.351,1.701-8.347,4.348c-6.903,9.15-13.614,18.446-20.354,27.718c-14.238,19.589-29.955,37.757-49.958,51.771
		c-10.69,7.49-22.139,12.961-35.538,13.389c-5.354,0.169-7.475-2.178-7.261-7.424c0.236-5.849,1.732-11.289,4.231-16.533
		c5.9-12.381,14.175-22.98,23.925-32.55c2.752-2.701,6.147-6.253,2.957-10.108c-3.314-4-7.948-1.885-11.228,0.622
		c-8.344,6.378-13.3,10.725-19.914,19.574c-7.1,8.115-11.424,17.225-11.424,17.225s-10.51,4.168-14.101,5.871
		c-1.611,0.765-6.674,2.755-6.674,2.755s-0.613-3.381-0.755-5.228c-0.705-9.146-1.427-18.31-2.75-27.379
		c-0.313-2.139-1.152-7.676-1.152-7.676s6.47-5.478,12.055-12.167c6.199-8.497,11.435-15.549,14.425-25.843
		c2.561-8.817,0.185-16.21-6.038-19.27c-6.91-3.398-15.364-0.99-20.526,6.143c-7.241,10.003-8.583,18.056-12.444,34.071
		c-1.588,8.572-2.077,15.387-2.077,15.387s-10.584,9.202-15.857,13.445c-16.479,13.265-32.537,26.951-52.082,35.669
		c-8.443,3.767-17.193,6.597-26.4,7.404c-8.423,0.737-11.378-3.492-7.818-10.754c2.854-5.826,6.993-10.803,11.604-15.299
		c10.671-10.41,21.555-20.604,32.235-31.001c6.541-6.368,8.713-15.543,5.497-21.928c-2.933-5.822-9.146-7.547-19.573-5.779
		c-15.183,2.572-29.085,8.481-41.959,16.644c-18.492,11.723-37.48,22.727-54.721,36.473c9.146-11.847,17.722-24.013,28.181-34.657
		c3.043-3.097,6.279-6.151,7.645-10.469c0.718-2.282,0.675-4.639-1.282-6.377c-2.109-1.873-4.31-0.998-6.333,0.261
		c-1.752,1.087-3.411,2.33-5.082,3.541c-13.189,9.549-22.872,22.437-33.241,34.703c-16.173,19.132-36.649,31.701-60.606,38.685
		c-2.411,0.703-9.751,3.975-9.287-1.358c0.229-2.637,10.404-11,18.801-17.562c12.653-10.446,23.285-18.635,34.317-29.34
		c3.287-3.191,7.104-6.979,3.983-11.924c-2.86-4.537-8.004-4.022-12.54-2.917c-6.919,1.689-13.686,3.952-19.796,7.762
		c-1.915,1.193-4.715,2.874-4.715,2.874s-0.264-3.589-0.449-5.29c-1.94-17.766-13.783-26.475-31.64-23.22
		c-20.552,3.749-37.357,15.086-52.912,28.079c-10.118,8.448-17.584,19.482-21.627,32.211c-2.817,8.871-4.617,18.425,3.212,25.811
		c7.55,7.124,33.552-2.644,53.951-14.656c15.063-10.636,21.349-13.953,38.583-23.822c-9.958,8.666-18.255,17.501-25.758,28.208
		c-2.603,3.715-4.096,9.175-1.934,13.601c2.063,4.226,6.19,5.12,10.471,5.351c5.628,0.308,10.883-1.423,16.147-3.043
		c12.821-3.944,27.482-9.844,39.267-16.66c0,0-2.893,4.186-3.428,5.399c-1.117,2.527-2.718,5.341,0.048,7.526
		c2.831,2.236,6.06,1.576,8.947-0.375c1.137-0.77,2.159-1.708,3.213-2.593c21.814-18.342,44.354-35.712,69.143-49.899
		c13.942-7.98,28.035-15.805,44.117-18.824c2.189-0.412,5.045-1.283,6.448,0.861c1.726,2.634-1.388,3.918-2.776,5.497
		c-1.663,1.889-3.618,3.517-5.439,5.266c-12.625,12.124-24.417,24.925-33.011,40.35c-3.756,6.743-5.854,13.558-1.087,20.728
		c4.918,7.396,11.967,10.461,20.658,9.799c5.268-0.401,10.337-1.679,15.37-3.468c24.45-8.688,44.92-23.726,64.703-39.923
		c3.966-3.245,7.701-6.903,13.811-10.641c0,9.803-0.474,20.082-0.143,28.977l-0.123,7.225c0,0-4.085,1.958-6.029,2.816
		c-11.809,5.215-22.701,12.086-32.573,20.423c-13.866,11.706-24.483,25.517-26.907,44.194c-2.591,19.964,11.816,39.915,37.99,35.209
		c20.198-5.354,34.356-18.391,41.722-39.056c6.328-17.748,9.055-36.138,7.709-54.837c-0.258-3.568-0.583-8.238-0.583-8.238
		s5.763-2.745,8.521-3.966c2.111-0.934,6.702-2.812,6.702-2.812s-0.979,2.172-1.407,6.785c-0.909,9.772,1.358,17.906,11.905,24.49
		c9.345,4.13,19.692,5.887,29.452,1.576c11.725-5.179,23.138-11.09,33.063-19.546c12.783-10.892,23.557-23.69,36.083-35.489
		c-0.979,2.502-1.891,5.031-2.951,7.499c-8.81,20.459-18.772,40.359-29.093,60.094c-20.686,39.546-45.247,76.627-71.206,112.836
		c-1.852,2.587-4.119,4.131-7.383,4.378c-15.549,1.177-31.036,3.218-46.689,2.813c-31.912-0.832-63.334-7.034-95.222-8.402
		c-36.987-1.591-73.913-2.803-110.251,5.919c-56.81,13.636-101.439,42.671-121.268,100.557c-8.726,25.469-6.026,50.556,8.382,74.063
		c15.9,25.944,40.859,38.8,68.673,45.761c45.025,11.271,87.86,1.658,128.779-18.253c36.598-17.809,67.313-43.633,95.591-72.379
		c33.169-33.721,59.222-72.998,85.267-112.199c2.445-3.68,5.023-6.104,9.463-7.084c41.821-9.213,76.098-31.16,104.434-62.771
		c9.555-10.66,16.62-23.062,22.951-35.854C923.845,427.955,925.131,426.198,923.366,424.972z M763.317,266.08
		c1.327-1.423,2.853-3.414,5.182-2.166c1.899,1.017,1.591,3.194,1.349,4.94c-1.31,9.412-8.166,26.066-15.921,31.552
		C754.092,291.24,756.847,273.024,763.317,266.08z M492.147,319.97c-18.781,9.586-36.833,20.601-56.303,28.84
		c-0.844,0.355-1.705,0.689-2.584,0.947c-1.955,0.567-6.198,2.743-10.261-0.757c-2.289-1.972-7.587-12.3,8.026-25.848
		c9.757-8.149,12.921-10.824,33.062-22.06c5.689-3.47,18.699-5.39,25.645-4.644c7.505,0.807,9.977,3.839,9.889,11.631
		C499.954,313.555,496.829,317.578,492.147,319.97z M724.184,432.281c-3.315,4.999-6.898,9.703-11.623,13.442
		c-7.079,5.607-14.906,6.595-21.77,2.198c-6.552-4.197-8.405-14.373-6.188-21.409c5.441-17.28,16.992-30.175,30.787-41.168
		c6.379-5.083,14.519-10.831,22.689-13.801C737.346,394.958,736.041,414.396,724.184,432.281z M742.541,559.855
		c-27.523,34.571-57.943,66.311-91.455,95.169c-47.773,41.14-103.351,59.914-165.834,56.258
		c-31.519-1.846-58.934-24.056-67.375-61.334c-3.921-17.322,2.245-32.757,9.29-47.677c16.933-35.859,47.954-53.841,84.516-63.681
		c39.358-10.592,79.449-12.597,120.133-10.49c36.629,1.896,73.022,8.23,109.861,6.161c6.834-0.385,13.665-0.81,22.829-1.356
		C756.336,542.921,749.344,551.312,742.541,559.855z"/>
	<path d="M553.227,147.181c14.727-19.983,26.17-41.44,29.162-66.702c3.322-28.072-14.145-53.953-41.478-60.854
		c-24.698-6.234-48.252-1.745-71.293,7.438c-40.935,16.313-74.313,43.504-104.848,74.341
		c-33.88,34.216-62.738,72.501-88.294,113.284c-6.29,10.037-12.542,20.098-18.812,30.149c12.814-29.045,24.697-58.426,39.8-86.306
		c3.056-5.641,5.815-11.549,6.525-18.037c0.822-7.508-4.081-11.339-11.144-8.868c-4.398,1.539-8.068,4.331-11.547,7.361
		c-32.334,28.182-55.143,63.01-71.354,102.417c-0.685,1.666-2.373,3.631,1.205,6.335c18.238-31.428,36.079-62.965,63.234-87.813
		c-6.732,12.747-13.725,25.364-20.147,38.266c-19.033,38.232-36.577,77.123-50.508,117.55c-0.839,2.435-1.93,5.459-1.93,5.459
		s-39.309,6.483-56.302,7.255c-2.116,0.097-5.802,0.034-5.802,1.935c0,2.231,3.423,2.487,6.107,2.552
		c16.943,0.871,25.509,0.713,43.768-0.267c3.405-0.196,8.571-0.528,8.571-0.528s-1.824,5.186-2.676,7.779
		c-11.384,34.68-20.367,70.017-28.029,105.688c-3.804,17.706-8.705,35.199-10.997,53.204c-1.177,9.245,3.645,14.794,13.017,15.805
		c7.643,0.823,13.179-3.775,14.364-12.253c2.067-14.778,4.603-29.479,8.079-43.977c10.146-42.316,25.485-82.833,42.669-122.73
		c1.171-2.722,4.018-7.944,4.018-7.944s5.033-1.905,8.753-2.554c72.348-12.597,138.259-41.148,199.298-81.41
		C487.104,217.066,524.222,186.534,553.227,147.181z M261.088,310.193c-4.589,1.116-16.802,3.526-16.802,3.526
		s5.597-10.139,7.597-14.302c16.726-34.793,35.815-68.259,57.593-100.124c30.037-43.949,63.765-84.756,105.912-117.735
		c27.31-21.368,56.648-39.18,92.092-43.813c12.343-1.613,24.294-0.559,35.449,5.345c13.576,7.185,18.494,19.026,18.067,26.764
		c-1.063,29.375-11.262,48.145-23.548,65.711c-29.96,42.841-70.053,74.906-113.211,103.287
		C373.982,271.902,319.643,295.964,261.088,310.193z"/>
</g>
</svg>
