<?xml version="1.0" encoding="utf-8"?>
<!-- Generator: Adobe Illustrator 16.0.3, SVG Export Plug-In . SVG Version: 6.00 Build 0)  -->
<!DOCTYPE svg PUBLIC "-//W3C//DTD SVG 1.1//EN" "http://www.w3.org/Graphics/SVG/1.1/DTD/svg11.dtd">
<svg version="1.1" xmlns="http://www.w3.org/2000/svg" xmlns:xlink="http://www.w3.org/1999/xlink" x="0px" y="0px" width="500px"
	 height="500px" viewBox="3027.571 18.314 500 500" enable-background="new 3027.571 18.314 500 500" xml:space="preserve">
<g id="Capa_1">
	<path fill="none" d="M3282.018,145.789c-72.03,1.368-126.342,57.723-126.053,126.73c0.305,72.023,57.481,126.342,126.495,126.045
		c72.031-0.304,126.343-57.488,126.045-126.486C3408.2,200.038,3351.025,146.594,3282.018,145.789z M3281.852,372.374
		c-55.238-0.099-99.756-44.922-99.688-100.358c0.068-55.275,44.829-99.84,100.235-99.794
		c55.506,0.038,100.039,44.868,99.916,100.578C3382.194,328,3337.317,372.473,3281.852,372.374z"/>
	<path fill="none" d="M3412.268,101.033c-18.177-0.265-37.021,14.057-36.863,36.803c0.146,21.545,16.172,36.499,36.955,36.833
		c20.192,0.327,36.469-16.475,36.545-36.689C3448.979,117.325,3432.879,101.338,3412.268,101.033z M3412.139,148.358
		c-5.906-0.038-10.543-4.744-10.506-10.659c0.046-5.808,4.957-10.704,10.659-10.612c5.671,0.091,10.642,5.131,10.611,10.78
		C3422.881,143.621,3417.97,148.404,3412.139,148.358z"/>
	<path fill="#55616C" d="M3501.047,108.636c-19.842-36.901-50.182-59.557-91.583-67.083c-2.221-0.402-4.418-0.919-6.63-1.383
		c-80.401,0-160.795,0-241.189,0c-14.961,2.479-29.603,6.082-43.061,13.312c-36.901,19.842-59.556,50.183-67.089,91.577
		c-0.403,2.228-0.92,4.425-1.384,6.645c0,80.394,0,160.788,0,241.189c2.471,14.961,6.082,29.603,13.32,43.059
		c19.832,36.909,50.182,59.557,91.576,67.091c2.219,0.402,4.425,0.912,6.637,1.376c80.395,0,160.788,0,241.189,0
		c14.961-2.471,29.596-6.074,43.061-13.312c36.9-19.835,59.556-50.183,67.082-91.57c0.41-2.227,0.918-4.431,1.383-6.644
		c0-80.402,0-160.796,0-241.189C3511.896,136.735,3508.277,122.092,3501.047,108.636z M3282.46,398.564
		c-69.014,0.297-126.19-54.022-126.495-126.045c-0.289-69.007,54.022-125.362,126.053-126.73
		c69.008,0.805,126.183,54.249,126.487,126.289C3408.803,341.076,3354.491,398.26,3282.46,398.564z M3412.359,174.67
		c-20.783-0.335-36.809-15.289-36.955-36.833c-0.158-22.746,18.687-37.068,36.863-36.803c20.611,0.305,36.711,16.292,36.637,36.947
		C3448.828,158.195,3432.552,174.996,3412.359,174.67z"/>
	<path fill="#55616C" d="M3282.398,172.222c-55.406-0.046-100.167,44.519-100.235,99.794c-0.067,55.437,44.45,100.26,99.688,100.358
		c55.466,0.099,100.343-44.375,100.463-99.574C3382.438,217.09,3337.904,172.26,3282.398,172.222z"/>
	<path fill="#55616C" d="M3412.292,127.087c-5.702-0.092-10.613,4.804-10.659,10.612c-0.037,5.915,4.6,10.621,10.506,10.659
		c5.831,0.045,10.742-4.737,10.765-10.491C3422.934,132.219,3417.963,127.178,3412.292,127.087z"/>
</g>
<g id="_x33__1_">
</g>
<g id="_x32__1_">
</g>
<g id="_x31_">
</g>
</svg>
