<?xml version="1.0" encoding="utf-8"?>
<!-- Generator: Adobe Illustrator 16.0.3, SVG Export Plug-In . SVG Version: 6.00 Build 0)  -->
<!DOCTYPE svg PUBLIC "-//W3C//DTD SVG 1.1//EN" "http://www.w3.org/Graphics/SVG/1.1/DTD/svg11.dtd">
<svg version="1.1" xmlns="http://www.w3.org/2000/svg" xmlns:xlink="http://www.w3.org/1999/xlink" x="0px" y="0px" width="500px"
	 height="500px" viewBox="3527.571 18.314 500 500" enable-background="new 3527.571 18.314 500 500" xml:space="preserve">
<g id="Capa_1">
	<g>
		<path fill-rule="evenodd" clip-rule="evenodd" fill="#55616C" d="M3549.66,414.075c0-0.304,0-0.61,0-0.907
			c1.967-0.076,3.965-0.396,5.887-0.175c13.801,1.571,27.526,0.747,41.234-0.93c32.424-3.958,61.762-15.707,88.176-34.869
			c0.869-0.633,2.318-0.968,2.135-2.844c-1.433-0.266-2.897-0.648-4.377-0.801c-19.596-1.997-36.828-9.583-51.834-22.219
			c-12.643-10.644-21.991-23.736-27.892-39.207c-1.876-4.903-1.587-5.315,3.446-4.75c4.973,0.563,9.943,1.265,14.945,0.823
			c6.281-0.557,12.719-0.404,19.763-2.761c-7.989-2.265-14.868-4.621-21.273-8.128c-31.002-17.042-48.296-43.187-51.818-78.408
			c-0.243-2.485-1.571-5.695,0.595-7.304c2.058-1.525,4.453,1.007,6.572,1.952c10.432,4.651,21.273,7.457,33.626,8.158
			c-1.54-1.364-2.378-2.173-3.278-2.882c-36.479-28.601-47.32-77.934-26.229-119.414c2.577-5.063,2.897-5.132,6.603-0.762
			c31.964,37.552,71.141,64.644,117.668,80.984c22.266,7.815,45.186,12.627,68.762,14.053c5.047,0.305,5.658-0.587,4.896-5.437
			c-1.846-11.491-1.783-23.028,0.839-34.32c8.418-36.287,30.118-61.412,65.758-72.368c35.195-10.828,67.068-2.745,94.352,22.181
			c2.835,2.592,5.336,3.118,8.934,2.272c17.676-4.148,34.451-10.5,50.327-19.299c1.234-0.687,2.729-2.272,4.041-1.091
			c1.281,1.167-0.078,2.867-0.579,4.209c-6.162,16.249-16.121,29.752-29.693,40.579c-2.256,1.808-4.574,3.531-6.877,5.3
			c5.688-0.45,10.996-1.556,16.333-2.601c11.94-2.356,23.149-7.06,34.603-10.964c0,0.603,0,1.212,0,1.814
			c-0.824,0.893-1.754,1.701-2.44,2.677c-11.56,16.325-25.101,30.744-41.222,42.631c-3.018,2.219-3.49,4.925-3.414,8.289
			c0.854,34.799-5.109,68.472-17.203,101.061c-17.262,46.587-44.423,86.344-82.807,118.094
			c-45.14,37.347-97.584,56.15-155.686,59.284c-49.395,2.661-96.486-6.703-140.588-29.662
			C3564.421,422.425,3557.087,418.17,3549.66,414.075z"/>
	</g>
</g>
<g id="_x33__1_">
</g>
<g id="_x32__1_">
</g>
<g id="_x31_">
</g>
</svg>
