<?xml version="1.0" encoding="utf-8"?>
<!-- Generator: Adobe Illustrator 16.0.3, SVG Export Plug-In . SVG Version: 6.00 Build 0)  -->
<!DOCTYPE svg PUBLIC "-//W3C//DTD SVG 1.1//EN" "http://www.w3.org/Graphics/SVG/1.1/DTD/svg11.dtd">
<svg version="1.1" xmlns="http://www.w3.org/2000/svg" xmlns:xlink="http://www.w3.org/1999/xlink" x="0px" y="0px" width="1000px"
	 height="1000px" viewBox="2027.571 18.314 1000 1000" enable-background="new 2027.571 18.314 1000 1000" xml:space="preserve">
<g id="Capa_1">
</g>
<g id="_x33__1_">
</g>
<g id="_x32__1_">
</g>
<g id="_x31_">
	<g>
		<path fill="none" d="M2680.322,728.857c-0.653-2.222-2.157-4.197-4.052-5.853c-0.479-0.412-0.976-0.81-1.497-1.185
			c-0.535-0.382-0.978-0.689-1.61-1.071c-1.092-0.695-2.098-1.169-3.136-1.404c-2.042-0.479-3.826,0.241-5.179,1.968
			c-2.645,3.477-3.063,9.323-0.962,12.938c0.246,0.431,0.604,0.893,0.866,1.172c0.39,0.395,0.877,0.819,1.326,1.206
			c0.918,0.783,1.89,1.485,2.896,2.104c2.014,1.238,4.191,2.128,6.429,2.594c0.591,0.122,1.188,0.213,1.788,0.278
			c1.194-1.825,2.201-3.724,2.839-5.67C2680.825,733.527,2681.008,731.069,2680.322,728.857z"/>
		<path fill="none" d="M2284.355,471.982c1.465-1.001,2.733-2.243,3.701-3.674c0.961-1.435,1.594-3.073,1.84-4.779
			c0.267-1.706,0.073-3.477-0.473-5.108c-0.566-1.613-1.526-3.128-2.853-4.086c-0.625-0.479-1.438-0.869-2.097-0.995
			c-0.091-0.021-0.153-0.055-0.269-0.068l-0.363-0.032l-0.363-0.031l-0.092-0.009l-0.019-0.001l-0.142,0.013l-1.271,0.091
			c-1.648,0.264-3.107,1.13-4.041,2.591c-0.952,1.433-1.471,3.236-1.729,5.07c-0.258,1.854-0.264,3.729-0.054,5.63
			c0.175,1.844,0.744,3.646,1.609,5.313c0.458,0.894,1,1.738,1.601,2.546c0.063-0.021,0.129-0.038,0.19-0.061
			C2281.247,473.763,2282.889,472.987,2284.355,471.982z"/>
		<path fill="#E3E3E5" d="M2363.865,461.85c-16.256-18.705-30.368-51.181-35.481-106.793c0,0-35.131,108.979-2.447,133.531
			c0,0-17.43,1.109-21.939-1.501c0,0,1.813,10.957,2.521,16.738l52.774-40.517C2360.415,462.838,2361.982,462.348,2363.865,461.85z"
			/>
		<path fill="#E3E3E5" d="M2395.404,466.129c7.22,7.544,14.259,11.87,20.243,14.323c-0.137-0.588-0.157-1.193,0.068-1.69
			c0.615-1.356,3.132-1.848,3.659-1.604c0.534,0.254,1.038,0.621,1.54,1.021c0.364,0.284,3.528,3.407,5.263,5.123
			c4.082,0.524,6.547,0.132,6.547,0.132s-28.766,10.274-56.381-9.995c-0.186,4.339-0.789,9.543-1.169,15.084
			c-0.916,13.313-8.962,28.472-14.735,28.472c-7.563,0-6.354-10.815-6.354-24.158c0-5,0.114-8.952,0.327-12.098
			c-0.445,0.187-0.706,0.295-0.706,0.295l-46.979,25.406c-0.223,5.021-4.112,35.401-34.438,77.821c0,0-13.981,17.195-13.981,22.801
			c0,5.164,7.787,20.486,40.084,33.97l-6.446,26.814c0,0-1.573,7.254,4.069,11.744l14.485,10.144l-3.334,15.365
			c0,0-2.91,7.684,6.957,9.713c0,0,19.715,5.798,21.164,14.642c0,0,3.043,14.93,2.465,45.08c0,0,0,16.814,15.074,22.179
			c0,0,20.563,12.016,57.465-1.747c0,0,9.261-41.016,17.021-115.374c8.104-77.62,8.771-202.49,8.771-202.49
			c-8.284-4.799-15.868-9.918-22.726-15.058C2407.966,462.822,2401.749,464.31,2395.404,466.129z M2400.949,505.823
			c-0.589-0.253-1.151-0.521-1.631-0.873c-0.479-0.361-1.186-2.885-0.229-4.102c0.918-1.172,3.479-1.054,3.934-0.693
			c0.46,0.373,0.863,0.851,1.256,1.356c0.398,0.501,4.73,7.577,4.73,7.577S2401.535,506.08,2400.949,505.823z M2410.95,494.782
			c-0.631-0.106-1.242-0.233-1.791-0.462c-0.553-0.238-1.835-2.522-1.194-3.931c0.616-1.355,3.132-1.847,3.659-1.604
			c0.532,0.253,1.039,0.621,1.539,1.021c0.508,0.394,6.392,6.241,6.392,6.241S2411.581,494.893,2410.95,494.782z"/>
		<path fill="#E3E3E5" d="M2368.604,418.361c5.853,16.929,12.536,29.48,19.328,38.79c6.704-1.086,12.789-1.966,16.134-2.437
			C2381.089,435.688,2368.604,418.361,2368.604,418.361z"/>
		<path fill="#313131" d="M2306.732,505.782c-0.049-0.541-0.123-1.207-0.215-1.959l-12.018,9.228l12.229-6.613
			C2306.742,506.115,2306.742,505.893,2306.732,505.782z"/>
		<path fill="#313131" d="M2413.362,462.04c-3.266-2.448-6.368-4.9-9.297-7.326c-3.345,0.47-9.43,1.35-16.134,2.437
			c2.488,3.411,4.99,6.385,7.473,8.979C2401.749,464.31,2407.966,462.822,2413.362,462.04z"/>
		<path fill="#313131" d="M2354.413,480.737c-0.212,3.146-0.326,7.098-0.326,12.098c0,13.343-1.209,24.159,6.354,24.159
			c5.773,0,13.819-15.16,14.735-28.473c0.38-5.541,0.983-10.745,1.169-15.084c-4.224-3.099-8.417-6.914-12.479-11.587
			c-1.883,0.498-3.451,0.988-4.573,1.458l-52.773,40.516c0.092,0.75,0.166,1.419,0.215,1.959c0.01,0.11,0.01,0.334-0.004,0.655
			l46.979-25.405C2353.706,481.031,2353.968,480.922,2354.413,480.737z"/>
		<polygon fill="#313131" points="2304.944,499.906 2304.269,494.694 2276.497,510.789 		"/>
		<path fill="#313131" d="M2403.021,500.156c-0.455-0.36-3.016-0.479-3.934,0.693c-0.955,1.217-0.25,3.74,0.229,4.102
			c0.479,0.353,1.042,0.62,1.631,0.873c0.586,0.258,8.06,3.266,8.06,3.266s-4.332-7.075-4.73-7.577
			C2403.885,501.006,2403.481,500.528,2403.021,500.156z"/>
		<path fill="#313131" d="M2411.622,488.785c-0.526-0.243-3.043,0.249-3.658,1.604c-0.641,1.408,0.643,3.692,1.194,3.931
			c0.548,0.229,1.16,0.355,1.791,0.462c0.63,0.111,8.604,1.265,8.604,1.265s-5.885-5.849-6.393-6.241
			C2412.663,489.406,2412.156,489.038,2411.622,488.785z"/>
		<path fill="#313131" d="M2420.915,478.177c-0.502-0.399-1.007-0.767-1.541-1.021c-0.526-0.242-3.043,0.249-3.658,1.604
			c-0.227,0.497-0.205,1.103-0.068,1.69c4.099,1.68,7.702,2.484,10.53,2.849C2424.444,481.584,2421.28,478.461,2420.915,478.177z"/>
		<path fill="#E6A341" d="M2277.744,471.905c-0.865-1.666-1.436-3.469-1.609-5.313c-0.21-1.901-0.204-3.775,0.054-5.63
			c0.259-1.834,0.776-3.637,1.729-5.07c0.934-1.46,2.393-2.327,4.041-2.591l1.271-0.091l0.142-0.013l-0.027-0.002l-0.022-0.002
			c-0.026-0.001,0.154,0.004,0.068,0.003l-0.018,0.001l0.018,0.001l0.092,0.009l0.363,0.031l0.364,0.032
			c0.113,0.015,0.177,0.048,0.268,0.068c0.657,0.126,1.472,0.516,2.097,0.995c1.325,0.958,2.285,2.473,2.853,4.086
			c0.546,1.632,0.738,3.402,0.473,5.108c-0.246,1.706-0.879,3.345-1.84,4.779c-0.968,1.431-2.235,2.673-3.701,3.674
			c-1.467,1.005-3.108,1.781-4.819,2.407c-0.063,0.022-0.129,0.04-0.191,0.062c0.713,0.959,1.518,1.856,2.383,2.701
			c1.572-0.68,3.104-1.49,4.521-2.515c1.721-1.238,3.267-2.799,4.414-4.646c1.149-1.842,1.889-3.95,2.123-6.109
			c0.255-2.161-0.051-4.363-0.812-6.396c-0.786-2.013-2.057-3.922-3.938-5.208c-0.953-0.645-1.938-1.13-3.205-1.337
			c-0.332-0.075-0.579-0.088-0.813-0.096l-0.365-0.02l-0.271-0.012l-0.205,0.021l-1.638,0.178c-2.193,0.412-4.283,1.854-5.355,3.769
			c-1.124,1.885-1.577,3.958-1.772,5.978c-0.191,2.016-0.094,4.067,0.215,6.027c0.286,2.028,1.006,3.977,2.02,5.721
			c0.466,0.811,0.995,1.578,1.566,2.308c0.383-0.111,0.761-0.235,1.137-0.362C2278.744,473.643,2278.202,472.797,2277.744,471.905z"
			/>
		<path fill="#E6A341" d="M2268.813,476.27c-0.025-0.003-0.056-0.009-0.081-0.013l-0.147,0.01L2268.813,476.27z"/>
		<path fill="#E6A341" d="M2280.767,477.556c0.321-0.127,0.641-0.266,0.96-0.404c-0.865-0.845-1.67-1.742-2.383-2.701
			c-0.376,0.127-0.754,0.251-1.138,0.362c0.663,0.848,1.386,1.644,2.157,2.377C2280.495,477.316,2280.633,477.433,2280.767,477.556z
			"/>
		<path fill="#E6A341" d="M2285.031,480.834c1.662,1.055,3.402,1.969,5.185,2.776c1.787,0.797,3.609,1.509,5.481,2.057
			c-1.834-0.662-3.604-1.481-5.323-2.379c-1.717-0.909-3.376-1.917-4.938-3.051c-1.31-0.934-2.562-1.964-3.708-3.085
			c-0.318,0.139-0.639,0.277-0.96,0.404C2282.095,478.777,2283.523,479.873,2285.031,480.834z"/>
		<path fill="#E6A341" d="M2283.32,453.193l0.022,0.002l0.027,0.002l0.019-0.001C2283.475,453.198,2283.293,453.192,2283.32,453.193
			z"/>
		<path fill="#E6A341" d="M2264.038,479.047c1.455,0.411,2.824,0.726,4.494,0.892l0.126,0.012l0.104-0.009
			c1.005-0.09,2.011-0.162,3.016-0.27c1.003-0.157,2.01-0.251,3.01-0.463c2-0.373,3.986-0.904,5.926-1.629
			c0.019-0.008,0.036-0.017,0.055-0.023c-0.134-0.123-0.271-0.24-0.402-0.365c-0.771-0.733-1.493-1.529-2.156-2.377
			c-1.314,0.388-2.664,0.688-4.035,0.909c-0.911,0.173-1.854,0.236-2.776,0.36l-2.663,0.175c0.025,0.003,0.056,0.009,0.081,0.013
			l-0.229-0.003l0.147-0.01c-1.096-0.145-2.425-0.452-3.616-0.833c-1.246-0.407-2.485-0.854-3.673-1.427
			c-2.39-1.105-4.651-2.492-6.711-4.141c-4.141-3.278-7.463-7.545-9.891-12.295c-2.467-4.739-4.08-9.933-5.121-15.25
			c-1.037-5.327-1.46-10.792-1.55-16.266l0.009-4.113c0.04-1.373,0.129-2.746,0.189-4.119c0.076-2.747,0.442-5.488,0.665-8.23
			c0.333-2.737,0.694-5.476,1.079-8.209c0.479-2.724,0.867-5.46,1.418-8.175l1.663-8.183c0.562-2.666,1.239-5.345,1.972-8.003
			c1.472-5.321,3.213-10.577,5.085-15.786c1.886-5.206,3.972-10.344,6.219-15.41c2.233-5.075,4.722-10.034,7.282-14.955
			c2.571-4.916,5.342-9.727,8.231-14.468c2.929-4.717,5.984-9.356,9.205-13.884l2.421-3.396l2.515-3.325
			c1.65-2.238,3.415-4.389,5.161-6.554c0.862-1.092,1.752-2.163,2.668-3.209l2.698-3.186c1.806-2.121,3.716-4.146,5.571-6.227
			c1.901-2.035,3.859-4.02,5.789-6.033l6.004-5.831l6.194-5.639l6.364-5.46l-6.696,5.062l-6.502,5.324l-6.298,5.573
			c-2.029,1.932-4.091,3.836-6.1,5.796c-3.971,3.965-7.897,7.989-11.571,12.244c-1.835,2.127-3.689,4.242-5.435,6.446l-2.654,3.279
			l-2.562,3.352c-13.591,17.943-24.612,37.866-32.606,58.982c-2.01,5.275-3.77,10.648-5.318,16.097
			c-0.765,2.729-1.474,5.469-2.077,8.271l-1.718,8.247c-0.572,2.765-0.987,5.563-1.489,8.345c-0.416,2.797-0.789,5.604-1.107,8.419
			c-0.219,2.83-0.577,5.641-0.646,8.487c-0.057,1.421-0.14,2.839-0.174,4.261l0.011,4.272c0.118,5.698,0.588,11.421,1.714,17.073
			c1.113,5.646,2.974,11.209,5.731,16.364c2.73,5.157,6.489,9.866,11.181,13.471c2.337,1.805,4.887,3.343,7.602,4.52
			C2261.209,478.147,2262.616,478.622,2264.038,479.047z"/>
		<path fill="#E6A341" d="M2843.684,578.679c-0.3-13.238-1.266-27.195-3.146-41.529c-1.879-14.329-4.482-29.064-8.12-43.805
			c-3.596-14.748-8.012-29.54-13.135-44.081c-5.143-14.535-11.104-28.767-17.477-42.527c-6.354-13.774-13.392-26.95-20.552-39.48
			c-7.146-12.544-14.688-24.293-22.096-35.245c-7.42-10.946-14.862-20.995-21.951-30.09c-14.195-18.188-27.188-32.375-36.512-42.045
			c-4.654-4.846-8.477-8.489-11.086-10.966c-2.616-2.47-4.059-3.735-4.059-3.735s1.383,1.33,3.883,3.913
			c2.506,2.577,6.104,6.433,10.605,11.402c4.5,4.973,9.845,11.119,15.772,18.331c5.934,7.206,12.41,15.513,19.285,24.707
			c6.828,9.23,13.979,19.408,21.19,30.399c7.177,11.013,14.425,22.834,21.421,35.341c7.006,12.501,13.755,25.689,20.036,39.352
			c6.271,13.664,12.125,27.785,17.166,42.197c5.114,14.384,9.546,29.01,13.152,43.595c3.603,14.586,6.446,29.112,8.424,43.288
			c1.974,14.174,3.203,27.972,3.732,41.087c0.532,13.116,0.32,25.545-0.268,36.993c-0.238,5.731-0.774,11.201-1.184,16.416
			c-0.221,2.604-0.541,5.134-0.796,7.598c-0.276,2.462-0.496,4.859-0.848,7.166c-1.22,9.249-2.581,17.277-3.862,23.857
			c-0.654,3.289-1.236,6.229-1.745,8.782c-0.575,2.541-1.065,4.703-1.463,6.456c-0.794,3.507-1.219,5.378-1.219,5.378
			s0.509-1.85,1.463-5.317c0.477-1.733,1.065-3.875,1.759-6.39c0.607-2.538,1.306-5.455,2.089-8.723
			c1.507-6.548,3.148-14.549,4.687-23.793c0.434-2.305,0.735-4.703,1.099-7.166c0.34-2.467,0.747-4.998,1.059-7.608
			c0.587-5.225,1.229-10.723,1.618-16.481C2843.499,604.443,2844.019,591.919,2843.684,578.679z"/>
		<path fill="#E6A341" d="M2792.494,592.365c-0.525-4.089-1.122-7.819-1.745-11.106c-0.582-3.294-1.242-6.137-1.776-8.475
			c-1.119-4.671-1.96-7.279-1.96-7.279s0.107,0.676,0.311,1.94c0.203,1.266,0.427,3.136,0.745,5.5
			c0.288,2.373,0.618,5.252,0.934,8.56c0.327,3.304,0.583,7.041,0.854,11.108c0.089,2.038,0.24,4.156,0.282,6.354
			c0.038,1.098,0.077,2.213,0.117,3.347c0.02,1.133,0.039,2.283,0.06,3.448c0.089,4.663-0.042,9.577-0.199,14.651
			c-0.236,5.068-0.601,10.3-1.199,15.583c-0.525,5.293-1.401,10.623-2.39,15.922c-1.07,5.278-2.242,10.545-3.803,15.607
			c-0.385,1.269-0.77,2.529-1.15,3.785c-0.397,1.25-0.852,2.474-1.271,3.701c-0.438,1.222-0.827,2.454-1.294,3.646
			c-0.485,1.186-0.966,2.36-1.444,3.527c-0.893,2.364-2.028,4.566-3.037,6.776c-0.966,2.232-2.168,4.282-3.252,6.328
			c-1.045,2.071-2.302,3.938-3.434,5.803c-0.576,0.927-1.115,1.855-1.692,2.735c-0.607,0.858-1.205,1.702-1.789,2.527
			c-2.259,3.372-4.695,6.185-6.74,8.788c-1.07,1.259-2.166,2.353-3.115,3.429c-0.973,1.052-1.831,2.063-2.676,2.9
			c-1.731,1.632-3.064,2.959-3.988,3.85c-0.922,0.896-1.413,1.372-1.413,1.372s0.547-0.409,1.573-1.179
			c1.021-0.774,2.547-1.888,4.45-3.361c1.822-1.56,4.021-3.494,6.468-5.799c2.301-2.439,5.044-5.094,7.566-8.393
			c0.656-0.807,1.327-1.628,2.011-2.465c0.652-0.859,1.271-1.771,1.926-2.681c1.289-1.832,2.656-3.711,3.841-5.778
			c1.22-2.046,2.563-4.104,3.674-6.35c1.174-2.212,2.367-4.479,3.377-6.879c0.527-1.189,1.062-2.389,1.599-3.597
			c0.519-1.216,0.96-2.472,1.447-3.719c0.471-1.253,0.978-2.504,1.426-3.78c0.405-1.29,0.815-2.587,1.228-3.891
			c1.657-5.205,2.925-10.606,4.067-16.027c0.962-5.453,1.805-10.929,2.289-16.349c0.122-1.354,0.268-2.702,0.368-4.045
			c0.07-1.346,0.142-2.684,0.212-4.015c0.177-2.659,0.163-5.292,0.24-7.875c0.051-5.172-0.106-10.168-0.426-14.889
			C2793.509,600.903,2792.992,596.458,2792.494,592.365z"/>
		<path fill="#E6A341" d="M2682.072,741.462c-1.554,0.288-3.221,0.324-4.879,0.144c-0.286,0.437-0.573,0.872-0.88,1.299
			c-0.476,0.664-0.98,1.313-1.501,1.955c1.821,0.318,3.649,0.412,5.467,0.271c0.837-1.209,1.622-2.472,2.316-3.799
			C2682.422,741.374,2682.244,741.422,2682.072,741.462z"/>
		<path fill="#E6A341" d="M2674.813,744.859c-1.215,1.501-2.533,2.948-3.911,4.351c-3.957,3.995-8.435,7.575-13.045,10.976
			c-9.271,6.766-19.269,12.615-29.34,17.9c-10.083,5.278-20.255,10.039-30.265,14.261c-10.017,4.207-19.82,8.007-29.232,11.292
			c-9.416,3.275-18.4,6.148-26.768,8.555c-8.371,2.395-16.101,4.413-22.992,6.029c-6.896,1.616-12.952,2.828-17.958,3.733
			c-5.009,0.892-8.955,1.555-11.655,1.947c-2.702,0.386-4.143,0.591-4.143,0.591s1.452-0.12,4.172-0.347
			c2.719-0.257,6.713-0.61,11.765-1.314c10.103-1.389,24.521-3.775,41.497-8.108c8.487-2.154,17.628-4.729,27.174-7.846
			c9.546-3.11,19.54-6.645,29.69-10.792c10.149-4.142,20.522-8.743,30.773-14.042c10.238-5.314,20.427-11.202,30.006-18.123
			c4.775-3.478,9.378-7.243,13.578-11.5c2.086-2.142,4.082-4.396,5.845-6.88c0.095-0.134,0.182-0.275,0.274-0.41
			C2678.462,745.271,2676.634,745.178,2674.813,744.859z"/>
		<path fill="#E6A341" d="M2725.054,700.961c-1.723,4.756-4.231,10.416-8.128,16.239c-3.901,5.789-9.239,11.761-16.363,16.452
			c-3.551,2.347-7.538,4.332-11.854,5.864c-1.959,0.704-4.084,1.321-6.112,1.814c-0.694,1.328-1.479,2.59-2.316,3.799
			c0.829-0.064,1.656-0.163,2.479-0.335c2.535-0.656,4.794-1.378,7.076-2.255c4.518-1.735,8.645-4.008,12.297-6.592
			c3.654-2.588,6.83-5.497,9.541-8.518c2.699-3.032,4.932-6.176,6.791-9.252c3.713-6.171,5.977-12.031,7.488-16.919
			c1.521-4.896,2.213-8.868,2.616-11.569c0.395-2.708,0.461-4.164,0.461-4.164s-0.16,1.449-0.723,4.116
			C2727.741,692.309,2726.757,696.189,2725.054,700.961z"/>
		<path fill="#E6A341" d="M2677.193,741.605c-0.6-0.065-1.196-0.156-1.788-0.277c-2.236-0.467-4.415-1.355-6.429-2.595
			c-1.008-0.618-1.979-1.319-2.896-2.104c-0.449-0.386-0.938-0.813-1.326-1.206c-0.261-0.279-0.62-0.741-0.866-1.172
			c-2.101-3.615-1.682-9.463,0.962-12.938c1.354-1.727,3.137-2.446,5.179-1.968c1.038,0.236,2.044,0.709,3.137,1.404
			c0.633,0.382,1.074,0.689,1.609,1.071c0.521,0.375,1.021,0.771,1.497,1.185c1.896,1.654,3.397,3.631,4.052,5.853
			c0.687,2.212,0.504,4.67-0.29,7.078C2679.395,737.882,2678.388,739.78,2677.193,741.605c1.658,0.182,3.325,0.146,4.879-0.144
			c0.173-0.04,0.351-0.088,0.523-0.13c0.667-1.275,1.259-2.604,1.717-4.016c0.986-3.011,1.297-6.517,0.275-9.756
			c-0.974-3.258-3.121-5.904-5.468-7.882c-0.594-0.498-1.2-0.966-1.821-1.4c-0.607-0.426-1.326-0.896-1.895-1.226
			c-1.268-0.78-2.806-1.533-4.483-1.88c-1.68-0.36-3.603-0.291-5.294,0.411c-1.703,0.681-3.066,1.88-4.064,3.186
			c-1.981,2.66-2.807,5.703-3.01,8.694c-0.162,2.989,0.317,6.083,1.958,8.823c0.431,0.694,0.865,1.284,1.515,1.943
			c0.537,0.521,1.049,0.938,1.595,1.385c1.079,0.875,2.226,1.665,3.424,2.358c2.392,1.391,5.004,2.387,7.678,2.871
			c0.031,0.006,0.062,0.007,0.092,0.013c0.521-0.642,1.025-1.291,1.501-1.955C2676.62,742.477,2676.907,742.041,2677.193,741.605z"
			/>
	</g>
</g>
</svg>
