<?xml version="1.0" encoding="utf-8"?>
<!-- Generator: Adobe Illustrator 16.0.3, SVG Export Plug-In . SVG Version: 6.00 Build 0)  -->
<!DOCTYPE svg PUBLIC "-//W3C//DTD SVG 1.1//EN" "http://www.w3.org/Graphics/SVG/1.1/DTD/svg11.dtd">
<svg version="1.1" xmlns="http://www.w3.org/2000/svg" xmlns:xlink="http://www.w3.org/1999/xlink" x="0px" y="0px" width="500px"
	 height="500px" viewBox="3027.571 518.314 500 500" enable-background="new 3027.571 518.314 500 500" xml:space="preserve">
<g id="Capa_1">
	<g>
		<path fill-rule="evenodd" clip-rule="evenodd" fill="#55616C" d="M3050.175,951.287c0-122.67,0-245.331,0-367.999
			c1.58-6.803,3.471-13.487,7.021-19.602c9.492-16.388,23.785-25.873,42.157-29.586c122.663,0,245.323,0,367.999,0
			c6.787,1.611,13.481,3.471,19.595,7.021c16.389,9.5,25.881,23.793,29.586,42.167c0,122.668,0,245.329,0,367.999
			c-1.579,6.801-3.472,13.486-7.021,19.601c-9.492,16.388-23.801,25.873-42.16,29.586c-32.197,0-64.378,0-96.562,0
			c-0.107-0.906-0.313-1.806-0.313-2.705c-0.014-51.143,0.018-102.285-0.078-153.436c-0.016-3.746,1.58-4.598,4.913-4.566
			c11.228,0.117,22.47-0.118,33.682,0.125c3.847,0.079,5.693-1.329,7.054-4.824c8.099-20.617,16.402-41.149,24.613-61.722
			c2.204-5.551,2.094-5.699-4.129-5.699c-20.343-0.016-40.675-0.023-61.018,0c-2.72,0-5.115,0.054-5.098-3.877
			c0.125-18.969-0.033-37.938,0.171-56.906c0.063-6.396,3.69-10.243,9.946-11.924c2.814-0.759,5.675-0.868,8.569-0.868
			c11.681,0,23.362-0.07,35.043,0.031c3.285,0.023,4.646-1.157,4.629-4.528c-0.077-21.094-0.094-42.189,0-63.284
			c0.017-3.457-1.517-4.489-4.723-4.418c-19.858,0.431-39.75-0.751-59.611,0.704c-26.222,1.916-47.13,13.69-63.096,34.356
			c-12.448,16.129-17.468,34.777-17.608,54.886c-0.124,16.389-0.032,32.786-0.032,49.173c-0.013,6.622-0.03,6.638-6.848,6.645
			c-15.325,0.009-30.666,0.118-45.989-0.069c-4.16-0.056-5.568,1.297-5.536,5.504c0.171,20.328,0.188,40.673,0,61.002
			c-0.048,4.347,1.251,5.879,5.705,5.816c15.327-0.227,30.651-0.093,45.976-0.086c6.662,0.009,6.692,0.024,6.692,6.803
			c0,49.477,0,98.954-0.013,148.431c0,1.806-0.219,3.62-0.347,5.434c-61.329,0-122.66,0-183.992,0
			c-6.802-1.61-13.478-3.472-19.608-7.021C3063.356,983.953,3053.864,969.66,3050.175,951.287z"/>
	</g>
</g>
<g id="_x33__1_">
</g>
<g id="_x32__1_">
</g>
<g id="_x31_">
</g>
</svg>
